<?xml version="1.0" encoding="UTF-8" standalone="no"?>
<!-- Created with Inkscape (http://www.inkscape.org/) -->

<svg
   width="100.62796mm"
   height="26.854507mm"
   viewBox="0 0 100.62796 26.854507"
   version="1.1"
   id="svg5"
   xml:space="preserve"
   xmlns:inkscape="http://www.inkscape.org/namespaces/inkscape"
   xmlns:sodipodi="http://sodipodi.sourceforge.net/DTD/sodipodi-0.dtd"
   xmlns="http://www.w3.org/2000/svg"
   xmlns:svg="http://www.w3.org/2000/svg"><sodipodi:namedview
     id="namedview7"
     pagecolor="#ffffff"
     bordercolor="#000000"
     borderopacity="0.25"
     inkscape:showpageshadow="2"
     inkscape:pageopacity="0.0"
     inkscape:pagecheckerboard="0"
     inkscape:deskcolor="#d1d1d1"
     inkscape:document-units="mm"
     showgrid="false" /><defs
     id="defs2" /><g
     inkscape:label="Layer 1"
     inkscape:groupmode="layer"
     id="layer1"
     transform="translate(-29.007508,-164.39915)"><path
       style="fill:#bebebe;stroke:none;stroke-width:0.352778"
       d="m 97.09362,188.75354 v 1.76389 h 4.93889 V 175.70076 H 90.390844 v 4.93889 h 5.997226 c -1.01424,1.33117 -2.1015,2.62682 -3.527782,3.5384 -8.148461,5.20873 -15.894756,-8.45446 -7.055556,-13.26893 1.195564,-0.65112 2.530476,-0.88695 3.880556,-0.83728 1.505303,0.0554 2.656064,0.56201 3.880556,1.39559 h 0.352778 l 3.880558,-3.52778 c -4.098222,-5.22206 -13.238342,-4.20105 -17.624781,0.0329 -5.767917,5.56743 -5.167842,15.79577 1.397,20.50274 1.830917,1.3129 4.09575,2.19766 6.35,2.36312 3.41242,0.25012 6.055784,-0.97014 9.172221,-2.08492 M 29.007507,164.76465 v 25.75278 h 18.344445 v -5.64444 H 35.004729 v -20.10834 h -5.997222 m 31.044446,0.15487 c -2.999387,0.46366 -5.873362,1.60768 -8.052647,3.78693 -8.679816,8.67985 -0.911966,24.15977 11.227647,22.4107 16.705793,-2.40732 13.435895,-28.76532 -3.175,-26.19763 m 55.386117,0 c -2.99932,0.46366 -5.8734,1.60768 -8.05251,3.78693 -8.6801,8.67985 -0.91193,24.15977 11.22751,22.4107 16.70579,-2.40732 13.43589,-28.76532 -3.175,-26.19763 m -55.386117,5.60553 c 9.605787,-1.68063 12.868981,13.20257 3.175,14.93725 -10.023652,1.79373 -13.320784,-13.16214 -3.175,-14.93725 m 55.386117,0 c 9.60578,-1.68063 12.86898,13.20257 3.175,14.93725 -10.02348,1.79373 -13.32089,-13.16214 -3.175,-14.93725"
       id="path1582"
       sodipodi:nodetypes="cccccccccscccscccccccccccccccccccccccc"
       inkscape:export-filename="default-logo.svg"
       inkscape:export-xdpi="96"
       inkscape:export-ydpi="96" /></g></svg>
